<?xml version="1.0" encoding="UTF-8" standalone="no"?>
<!-- Created with Inkscape (http://www.inkscape.org/) -->
<svg
   xmlns:dc="http://purl.org/dc/elements/1.1/"
   xmlns:cc="http://creativecommons.org/ns#"
   xmlns:rdf="http://www.w3.org/1999/02/22-rdf-syntax-ns#"
   xmlns:svg="http://www.w3.org/2000/svg"
   xmlns="http://www.w3.org/2000/svg"
   xmlns:sodipodi="http://sodipodi.sourceforge.net/DTD/sodipodi-0.dtd"
   xmlns:inkscape="http://www.inkscape.org/namespaces/inkscape"
   width="744.09448819"
   height="1052.3622047"
   id="svg2"
   sodipodi:version="0.32"
   inkscape:version="0.46+devel, revision 20225"
   sodipodi:docname="screensave.svg"
   inkscape:output_extension="org.inkscape.output.svg.inkscape"
   inkscape:export-filename="C:\Users\Hekos\Desktop\asd.png"
   inkscape:export-xdpi="90"
   inkscape:export-ydpi="90">
  <defs
     id="defs4">
    <inkscape:perspective
       sodipodi:type="inkscape:persp3d"
       inkscape:vp_x="0 : 526.18109 : 1"
       inkscape:vp_y="0 : 1000 : 0"
       inkscape:vp_z="744.09448 : 526.18109 : 1"
       inkscape:persp3d-origin="372.04724 : 350.78739 : 1"
       id="perspective10" />
    <inkscape:perspective
       id="perspective2742"
       inkscape:persp3d-origin="0.5 : 0.33333333 : 1"
       inkscape:vp_z="1 : 0.5 : 1"
       inkscape:vp_y="0 : 1000 : 0"
       inkscape:vp_x="0 : 0.5 : 1"
       sodipodi:type="inkscape:persp3d" />
    <inkscape:perspective
       id="perspective2756"
       inkscape:persp3d-origin="0.5 : 0.33333333 : 1"
       inkscape:vp_z="1 : 0.5 : 1"
       inkscape:vp_y="0 : 1000 : 0"
       inkscape:vp_x="0 : 0.5 : 1"
       sodipodi:type="inkscape:persp3d" />
    <inkscape:perspective
       id="perspective2784"
       inkscape:persp3d-origin="0.5 : 0.33333333 : 1"
       inkscape:vp_z="1 : 0.5 : 1"
       inkscape:vp_y="0 : 1000 : 0"
       inkscape:vp_x="0 : 0.5 : 1"
       sodipodi:type="inkscape:persp3d" />
  </defs>
  <sodipodi:namedview
     id="base"
     pagecolor="#ffffff"
     bordercolor="#666666"
     borderopacity="1.0"
     inkscape:pageopacity="0.0"
     inkscape:pageshadow="2"
     inkscape:zoom="1"
     inkscape:cx="305.70795"
     inkscape:cy="887.82913"
     inkscape:document-units="px"
     inkscape:current-layer="layer1"
     showgrid="false"
     showguides="true"
     inkscape:guide-bbox="true"
     inkscape:window-width="1680"
     inkscape:window-height="970"
     inkscape:window-x="-8"
     inkscape:window-y="-8" />
  <metadata
     id="metadata7">
    <rdf:RDF>
      <cc:Work
         rdf:about="">
        <dc:format>image/svg+xml</dc:format>
        <dc:type
           rdf:resource="http://purl.org/dc/dcmitype/StillImage" />
        <dc:title></dc:title>
      </cc:Work>
    </rdf:RDF>
  </metadata>
  <g
     inkscape:label="Layer 1"
     inkscape:groupmode="layer"
     id="layer1">
    <rect
       style="fill:#ffffff;fill-opacity:1;stroke:#000000;stroke-width:2.16802979"
       id="rect3686"
       width="620.74109"
       height="387.78323"
       x="52.084038"
       y="26.446194"
       ry="87.086029"
       rx="297.81906" />
    <g
       id="g3681"
       transform="matrix(1.2789918,0,0,1.2660754,-94.724937,-47.895702)">
      <path
         sodipodi:nodetypes="cccccccccccc"
         id="rect3656"
         d="m 287.5,219.875 c -3.324,0 -6,2.676 -6,6 l -1,12 c -6.18419,2.16316 -8.98244,5.00351 -8.5,8.5 0,3.324 2.676,6 6,6 l 65.5,0 c 3.324,0 6,-2.676 6,-6 l 0,-5 c -3.89633,-17.49533 -36.61694,-7.69753 -48,-6 l 0,-9.5 c 0,-3.324 -2.676,-6 -6,-6 l -8,0 z"
         style="fill:#f2f2f2;fill-opacity:1;stroke:#000000;stroke-width:2" />
      <path
         style="fill:#cccccc;fill-opacity:1;stroke:#000000;stroke-width:2.09108973"
         d="M 211.77469,86.407733 395.57558,92.164238 405.72533,215.22557 228.29247,237.81664 211.77469,86.407733 z"
         id="path3654"
         sodipodi:nodetypes="ccccc" />
      <path
         transform="matrix(1,0,0.08214616,0.99662029,0,0)"
         sodipodi:nodetypes="ccccc"
         id="rect3651"
         d="M 217.96756,97.584858 379.8138,101.09673 380.95684,207.6712 219.83847,225.73224 217.96756,97.584858 z"
         style="fill:#f2f2f2;fill-opacity:1;stroke:#000000;stroke-width:1.78874946" />
    </g>
    <g
       id="g3677"
       transform="matrix(1.051001,-0.5004995,0.5004995,1.051001,-117.96145,326.45332)">
      <rect
         ry="2.0396836"
         y="40.221783"
         x="467.12698"
         height="64.887909"
         width="107.66787"
         id="rect3675"
         style="fill:#ffffff;fill-opacity:1;stroke:#000000;stroke-width:2.16591382" />
      <path
         sodipodi:nodetypes="cccccccccccccccccccccccc"
         id="rect3667"
         d="m 437.03125,40.138826 c -1.13287,0 -2.03125,0.898376 -2.03125,2.03125 l 0,154.406254 c 0,1.13287 0.89838,2.0625 2.03125,2.0625 l 152.4375,0 c 1.13287,0 2.03125,-0.92963 2.03125,-2.0625 l 0,-154.406254 c 0,-1.132874 -0.89838,-2.03125 -2.03125,-2.03125 l -33.96875,0 0,54.4375 c 0,1.132874 -0.89838,2.0625 -2.03125,2.0625 l -79.4375,0 C 472.89838,96.638826 472,95.7092 472,94.576326 l 0,-54.4375 -34.96875,0 z m 85,5.5 c -1.13287,0 -2.03125,0.898376 -2.03125,2.03125 l 0,41.40625 c 0,1.132874 0.89838,2.0625 2.03125,2.0625 l 19.4375,0 c 1.13287,0 2.03125,-0.929626 2.03125,-2.0625 l 0,-41.40625 c 0,-1.132874 -0.89838,-2.03125 -2.03125,-2.03125 l -19.4375,0 z"
         style="fill:#666666;fill-opacity:1;stroke:#000000;stroke-width:2" />
    </g>
    <text
       xml:space="preserve"
       style="font-size:117.37174225px;font-style:normal;font-variant:normal;font-weight:normal;font-stretch:normal;text-align:start;line-height:125%;writing-mode:lr-tb;text-anchor:start;fill:#fed500;fill-opacity:1;stroke:#000000;stroke-width:3.90566421;font-family:GungsuhChe;-inkscape-font-specification:GungsuhChe"
       x="69.08252"
       y="345.14896"
       id="text2865"
       sodipodi:linespacing="125%"><tspan
         sodipodi:role="line"
         id="tspan2867"
         x="69.08252"
         y="345.14896"
         style="fill:#fed500;fill-opacity:1;stroke-width:3.90566421">ScreenSave</tspan></text>
  </g>
</svg>
